<svg preserveAspectRatio="none" width="100%" height="100%" overflow="visible" style="display: block;" viewBox="0 0 19.9871 19.9871" fill="none" xmlns="http://www.w3.org/2000/svg">
<g id="Icon" clip-path="url(#clip0_58_50)">
<path id="Vector" d="M9.99353 2.49838H4.16397C3.72223 2.49838 3.29858 2.67386 2.98622 2.98622C2.67386 3.29858 2.49838 3.72223 2.49838 4.16397V15.8231C2.49838 16.2648 2.67386 16.6885 2.98622 17.0008C3.29858 17.3132 3.72223 17.4887 4.16397 17.4887H15.8231C16.2648 17.4887 16.6885 17.3132 17.0008 17.0008C17.3132 16.6885 17.4887 16.2648 17.4887 15.8231V9.99353" stroke="var(--stroke-0, #2B7FFF)" stroke-width="1.66559" stroke-linecap="round" stroke-linejoin="round"/>
<path id="Vector_2" d="M15.3026 2.18608C15.6339 1.85478 16.0832 1.66865 16.5518 1.66865C17.0203 1.66865 17.4697 1.85478 17.801 2.18608C18.1323 2.51739 18.3184 2.96674 18.3184 3.43527C18.3184 3.90381 18.1323 4.35316 17.801 4.68447L10.295 12.1913C10.0973 12.3889 9.85296 12.5335 9.58463 12.6118L7.19201 13.3114C7.12035 13.3323 7.04439 13.3335 6.97208 13.315C6.89977 13.2965 6.83377 13.2589 6.78098 13.2061C6.7282 13.1533 6.69058 13.0873 6.67205 13.015C6.65352 12.9427 6.65478 12.8667 6.67568 12.7951L7.37523 10.4024C7.45395 10.1343 7.59886 9.89031 7.79662 9.69289L15.3026 2.18608Z" stroke="var(--stroke-0, #2B7FFF)" stroke-width="1.66559" stroke-linecap="round" stroke-linejoin="round"/>
</g>
<defs>
<clipPath id="clip0_58_50">
<rect width="19.9871" height="19.9871" fill="white"/>
</clipPath>
</defs>
</svg>
