<svg preserveAspectRatio="none" width="100%" height="100%" overflow="visible" style="display: block;" viewBox="0 0 19.9871 19.9871" fill="none" xmlns="http://www.w3.org/2000/svg">
<g id="Icon" clip-path="url(#clip0_58_32)">
<path id="Vector" d="M8.55113 17.4887C8.69732 17.7419 8.90758 17.9521 9.16077 18.0983C9.41397 18.2445 9.70117 18.3214 9.99353 18.3214C10.2859 18.3214 10.5731 18.2445 10.8263 18.0983C11.0795 17.9521 11.2897 17.7419 11.4359 17.4887" stroke="var(--stroke-0, #FF6900)" stroke-width="1.66559" stroke-linecap="round" stroke-linejoin="round"/>
<path id="Vector_2" d="M2.71658 12.7634C2.60778 12.8826 2.53599 13.0309 2.50992 13.1902C2.48386 13.3495 2.50465 13.513 2.56976 13.6607C2.63487 13.8084 2.7415 13.9339 2.87668 14.0222C3.01186 14.1104 3.16976 14.1574 3.33118 14.1575H16.6559C16.8173 14.1576 16.9752 14.1107 17.1105 14.0227C17.2457 13.9346 17.3525 13.8092 17.4178 13.6616C17.4831 13.514 17.5041 13.3506 17.4782 13.1913C17.4524 13.032 17.3808 12.8836 17.2722 12.7642C16.1645 11.6225 14.9903 10.4091 14.9903 6.66235C14.9903 5.33713 14.4639 4.06618 13.5268 3.12911C12.5897 2.19203 11.3188 1.66559 9.99353 1.66559C8.66831 1.66559 7.39736 2.19203 6.46029 3.12911C5.52321 4.06618 4.99677 5.33713 4.99677 6.66235C4.99677 10.4091 3.82169 11.6225 2.71658 12.7634Z" stroke="var(--stroke-0, #FF6900)" stroke-width="1.66559" stroke-linecap="round" stroke-linejoin="round"/>
</g>
<defs>
<clipPath id="clip0_58_32">
<rect width="19.9871" height="19.9871" fill="white"/>
</clipPath>
</defs>
</svg>
