<svg preserveAspectRatio="none" width="100%" height="100%" overflow="visible" style="display: block;" viewBox="0 0 19.9871 19.9871" fill="none" xmlns="http://www.w3.org/2000/svg">
<g id="Icon" clip-path="url(#clip0_58_13)">
<path id="Vector" d="M9.99353 18.3215C14.5929 18.3215 18.3215 14.5929 18.3215 9.99353C18.3215 5.39414 14.5929 1.66559 9.99353 1.66559C5.39414 1.66559 1.66559 5.39414 1.66559 9.99353C1.66559 14.5929 5.39414 18.3215 9.99353 18.3215Z" stroke="var(--stroke-0, #FF6900)" stroke-width="1.66559" stroke-linecap="round" stroke-linejoin="round"/>
<path id="Vector_2" d="M7.5701 7.49512C7.76589 6.93853 8.15235 6.4692 8.66102 6.17025C9.1697 5.8713 9.76776 5.76202 10.3493 5.86177C10.9308 5.96151 11.4583 6.26385 11.8382 6.71523C12.2182 7.1666 12.4262 7.73789 12.4253 8.32791C12.4253 9.9935 9.92691 10.8263 9.92691 10.8263" stroke="var(--stroke-0, #FF6900)" stroke-width="1.66559" stroke-linecap="round" stroke-linejoin="round"/>
<path id="Vector_3" d="M9.99353 14.1575H10.0019" stroke="var(--stroke-0, #FF6900)" stroke-width="1.66559" stroke-linecap="round" stroke-linejoin="round"/>
</g>
<defs>
<clipPath id="clip0_58_13">
<rect width="19.9871" height="19.9871" fill="white"/>
</clipPath>
</defs>
</svg>
