<svg preserveAspectRatio="none" width="100%" height="100%" overflow="visible" style="display: block;" viewBox="0 0 19.9871 19.9871" fill="none" xmlns="http://www.w3.org/2000/svg">
<g id="Icon">
<path id="Vector" d="M12.9083 6.24596L14.8237 8.16138C14.9794 8.31398 15.1887 8.39945 15.4067 8.39945C15.6247 8.39945 15.834 8.31398 15.9897 8.16138L17.7385 6.41252C17.8911 6.25684 17.9766 6.04755 17.9766 5.82956C17.9766 5.61157 17.8911 5.40228 17.7385 5.2466L15.8231 3.33118" stroke="var(--stroke-0, #AD46FF)" stroke-width="1.66559" stroke-linecap="round" stroke-linejoin="round"/>
<path id="Vector_2" d="M17.4887 1.66559L9.49385 9.66041" stroke="var(--stroke-0, #AD46FF)" stroke-width="1.66559" stroke-linecap="round" stroke-linejoin="round"/>
<path id="Vector_3" d="M6.24596 17.4887C8.77563 17.4887 10.8263 15.438 10.8263 12.9083C10.8263 10.3786 8.77563 8.32794 6.24596 8.32794C3.71629 8.32794 1.66559 10.3786 1.66559 12.9083C1.66559 15.438 3.71629 17.4887 6.24596 17.4887Z" stroke="var(--stroke-0, #AD46FF)" stroke-width="1.66559" stroke-linecap="round" stroke-linejoin="round"/>
</g>
</svg>
