<svg preserveAspectRatio="none" width="100%" height="100%" overflow="visible" style="display: block;" viewBox="0 0 11.9999 11.9999" fill="none" xmlns="http://www.w3.org/2000/svg">
<g id="Icon" clip-path="url(#clip0_58_92)">
<path id="Vector" d="M6.99845 1.99999C7.17885 1.99998 7.35588 2.04878 7.5108 2.1412C7.66572 2.23363 7.79276 2.36624 7.87845 2.52498L8.12144 2.97498C8.20713 3.13373 8.33417 3.26634 8.48909 3.35876C8.64401 3.45118 8.82104 3.49998 9.00144 3.49998H9.99993C10.2651 3.49998 10.5195 3.60533 10.707 3.79287C10.8946 3.9804 10.9999 4.23475 10.9999 4.49997V8.99994C10.9999 9.26515 10.8946 9.51951 10.707 9.70704C10.5195 9.89458 10.2651 9.99993 9.99993 9.99993H1.99999C1.73477 9.99993 1.48042 9.89458 1.29288 9.70704C1.10535 9.51951 0.999993 9.26515 0.999993 8.99994V4.49997C0.999993 4.23475 1.10535 3.9804 1.29288 3.79287C1.48042 3.60533 1.73477 3.49998 1.99999 3.49998H2.99848C3.17869 3.49999 3.35555 3.4513 3.51037 3.35906C3.66518 3.26682 3.79219 3.13446 3.87797 2.97598L4.12247 2.52398C4.20825 2.3655 4.33526 2.23314 4.49008 2.1409C4.64489 2.04866 4.82176 1.99998 5.00197 1.99999H6.99845Z" stroke="var(--stroke-0, white)" stroke-width="0.999993" stroke-linecap="round" stroke-linejoin="round"/>
<path id="Vector_2" d="M5.99996 7.99995C6.82838 7.99995 7.49995 7.32838 7.49995 6.49996C7.49995 5.67153 6.82838 4.99997 5.99996 4.99997C5.17154 4.99997 4.49997 5.67153 4.49997 6.49996C4.49997 7.32838 5.17154 7.99995 5.99996 7.99995Z" stroke="var(--stroke-0, white)" stroke-width="0.999993" stroke-linecap="round" stroke-linejoin="round"/>
</g>
<defs>
<clipPath id="clip0_58_92">
<rect width="11.9999" height="11.9999" fill="white"/>
</clipPath>
</defs>
</svg>
