<svg preserveAspectRatio="none" width="100%" height="100%" overflow="visible" style="display: block;" viewBox="0 0 19.9871 19.9871" fill="none" xmlns="http://www.w3.org/2000/svg">
<g id="Icon" clip-path="url(#clip0_58_88)">
<path id="Vector" d="M15.8231 9.16074H4.16397C3.24409 9.16074 2.49838 9.90645 2.49838 10.8263V16.6559C2.49838 17.5758 3.24409 18.3215 4.16397 18.3215H15.8231C16.743 18.3215 17.4887 17.5758 17.4887 16.6559V10.8263C17.4887 9.90645 16.743 9.16074 15.8231 9.16074Z" stroke="var(--stroke-0, #FB2C36)" stroke-width="1.66559" stroke-linecap="round" stroke-linejoin="round"/>
<path id="Vector_2" d="M5.82956 9.16074V5.82956C5.82956 4.72521 6.26826 3.66608 7.04916 2.88519C7.83006 2.10429 8.88918 1.66559 9.99353 1.66559C11.0979 1.66559 12.157 2.10429 12.9379 2.88519C13.7188 3.66608 14.1575 4.72521 14.1575 5.82956V9.16074" stroke="var(--stroke-0, #FB2C36)" stroke-width="1.66559" stroke-linecap="round" stroke-linejoin="round"/>
</g>
<defs>
<clipPath id="clip0_58_88">
<rect width="19.9871" height="19.9871" fill="white"/>
</clipPath>
</defs>
</svg>
