<svg preserveAspectRatio="none" width="100%" height="100%" overflow="visible" style="display: block;" viewBox="0 0 19.9871 19.9871" fill="none" xmlns="http://www.w3.org/2000/svg">
<g id="Icon" clip-path="url(#clip0_58_61)">
<path id="Vector" d="M16.6559 10.8263C16.6559 14.9903 13.7411 17.0723 10.2767 18.2798C10.0953 18.3413 9.89821 18.3383 9.71871 18.2715C6.24596 17.0723 3.33118 14.9903 3.33118 10.8263V4.99673C3.33118 4.77586 3.41892 4.56404 3.5751 4.40786C3.73128 4.25168 3.9431 4.16394 4.16397 4.16394C5.82956 4.16394 7.91155 3.16459 9.36061 1.89874C9.53704 1.748 9.76148 1.66518 9.99353 1.66518C10.2256 1.66518 10.45 1.748 10.6265 1.89874C12.0838 3.17291 14.1575 4.16394 15.8231 4.16394C16.044 4.16394 16.2558 4.25168 16.412 4.40786C16.5681 4.56404 16.6559 4.77586 16.6559 4.99673V10.8263Z" stroke="var(--stroke-0, #00C950)" stroke-width="1.66559" stroke-linecap="round" stroke-linejoin="round"/>
</g>
<defs>
<clipPath id="clip0_58_61">
<rect width="19.9871" height="19.9871" fill="white"/>
</clipPath>
</defs>
</svg>
