<svg preserveAspectRatio="none" width="100%" height="100%" overflow="visible" style="display: block;" viewBox="0 0 19.9871 19.9871" fill="none" xmlns="http://www.w3.org/2000/svg">
<g id="Icon" clip-path="url(#clip0_58_96)">
<path id="Vector" d="M1.71722 10.2833C1.64781 10.0964 1.64781 9.89069 1.71722 9.70371C2.3932 8.06465 3.54064 6.66322 5.01406 5.67707C6.48749 4.69092 8.22055 4.16448 9.99353 4.16448C11.7665 4.16448 13.4996 4.69092 14.973 5.67707C16.4464 6.66322 17.5939 8.06465 18.2698 9.70371C18.3392 9.89069 18.3392 10.0964 18.2698 10.2833C17.5939 11.9224 16.4464 13.3238 14.973 14.31C13.4996 15.2961 11.7665 15.8226 9.99353 15.8226C8.22055 15.8226 6.48749 15.2961 5.01406 14.31C3.54064 13.3238 2.3932 11.9224 1.71722 10.2833Z" stroke="var(--stroke-0, #00C950)" stroke-width="1.66559" stroke-linecap="round" stroke-linejoin="round"/>
<path id="Vector_2" d="M9.99353 12.4919C11.3734 12.4919 12.4919 11.3734 12.4919 9.99353C12.4919 8.61371 11.3734 7.49515 9.99353 7.49515C8.61371 7.49515 7.49515 8.61371 7.49515 9.99353C7.49515 11.3734 8.61371 12.4919 9.99353 12.4919Z" stroke="var(--stroke-0, #00C950)" stroke-width="1.66559" stroke-linecap="round" stroke-linejoin="round"/>
</g>
<defs>
<clipPath id="clip0_58_96">
<rect width="19.9871" height="19.9871" fill="white"/>
</clipPath>
</defs>
</svg>
