<svg preserveAspectRatio="none" width="100%" height="100%" overflow="visible" style="display: block;" viewBox="0 0 19.9871 19.9871" fill="none" xmlns="http://www.w3.org/2000/svg">
<g id="Icon" clip-path="url(#clip0_58_73)">
<path id="Vector" d="M11.5192 13.7977C11.6912 13.8767 11.885 13.8948 12.0686 13.8489C12.2522 13.803 12.4147 13.696 12.5294 13.5454L12.825 13.1582C12.9802 12.9513 13.1814 12.7834 13.4126 12.6678C13.6439 12.5521 13.8989 12.4919 14.1575 12.4919H16.6559C17.0976 12.4919 17.5213 12.6674 17.8336 12.9798C18.146 13.2921 18.3215 13.7158 18.3215 14.1575V16.6559C18.3215 17.0976 18.146 17.5213 17.8336 17.8336C17.5213 18.146 17.0976 18.3215 16.6559 18.3215C12.6802 18.3215 8.86737 16.7421 6.05615 13.9309C3.24492 11.1197 1.66559 7.30685 1.66559 3.33118C1.66559 2.88944 1.84107 2.46579 2.15343 2.15343C2.46579 1.84107 2.88944 1.66559 3.33118 1.66559H5.82956C6.2713 1.66559 6.69495 1.84107 7.00731 2.15343C7.31967 2.46579 7.49515 2.88944 7.49515 3.33118V5.82956C7.49515 6.08814 7.43495 6.34316 7.31931 6.57443C7.20367 6.80571 7.03577 7.00689 6.82891 7.16203L6.43917 7.45434C6.28628 7.57108 6.17852 7.73715 6.13419 7.92433C6.08986 8.11151 6.1117 8.30827 6.19599 8.48118C7.33415 10.7929 9.20606 12.6625 11.5192 13.7977Z" stroke="var(--stroke-0, #00C950)" stroke-width="1.66559" stroke-linecap="round" stroke-linejoin="round"/>
</g>
<defs>
<clipPath id="clip0_58_73">
<rect width="19.9871" height="19.9871" fill="white"/>
</clipPath>
</defs>
</svg>
