<svg preserveAspectRatio="none" width="100%" height="100%" overflow="visible" style="display: block;" viewBox="0 0 19.9871 19.9871" fill="none" xmlns="http://www.w3.org/2000/svg">
<g id="Icon" clip-path="url(#clip0_58_23)">
<path id="Vector" d="M9.16074 3.91582C9.16057 3.79982 9.12605 3.68648 9.06152 3.59008C8.997 3.49368 8.90536 3.41856 8.79818 3.3742C8.69101 3.32983 8.57309 3.3182 8.45931 3.34079C8.34553 3.36337 8.24099 3.41915 8.15889 3.50109L5.34071 6.31843C5.23195 6.42784 5.10256 6.51458 4.96003 6.57362C4.81751 6.63266 4.66468 6.66283 4.51041 6.66238H2.49838C2.27751 6.66238 2.06569 6.75012 1.90951 6.9063C1.75333 7.06248 1.66559 7.2743 1.66559 7.49517V12.4919C1.66559 12.7128 1.75333 12.9246 1.90951 13.0808C2.06569 13.237 2.27751 13.3247 2.49838 13.3247H4.51041C4.66468 13.3243 4.81751 13.3544 4.96003 13.4135C5.10256 13.4725 5.23195 13.5593 5.34071 13.6687L8.15805 16.4869C8.24017 16.5691 8.34485 16.6252 8.45885 16.6479C8.57285 16.6706 8.69103 16.659 8.79841 16.6145C8.90579 16.57 8.99755 16.4946 9.06205 16.3979C9.12655 16.3012 9.1609 16.1875 9.16074 16.0713V3.91582Z" stroke="var(--stroke-0, #2B7FFF)" stroke-width="1.66559" stroke-linecap="round" stroke-linejoin="round"/>
<path id="Vector_2" d="M13.3247 7.49515C13.8653 8.21592 14.1575 9.09257 14.1575 9.99353C14.1575 10.8945 13.8653 11.7711 13.3247 12.4919" stroke="var(--stroke-0, #2B7FFF)" stroke-width="1.66559" stroke-linecap="round" stroke-linejoin="round"/>
<path id="Vector_3" d="M16.1262 15.2934C16.8222 14.5974 17.3743 13.7712 17.751 12.8618C18.1277 11.9525 18.3215 10.9778 18.3215 9.99352C18.3215 9.00924 18.1277 8.03459 17.751 7.12523C17.3743 6.21587 16.8222 5.38961 16.1262 4.69362" stroke="var(--stroke-0, #2B7FFF)" stroke-width="1.66559" stroke-linecap="round" stroke-linejoin="round"/>
</g>
<defs>
<clipPath id="clip0_58_23">
<rect width="19.9871" height="19.9871" fill="white"/>
</clipPath>
</defs>
</svg>
