<svg preserveAspectRatio="none" width="100%" height="100%" overflow="visible" style="display: block;" viewBox="0 0 29.4 29.4" fill="none" xmlns="http://www.w3.org/2000/svg">
<g id="Icon">
<path id="Vector" d="M18.375 25.725V15.925C18.375 15.6001 18.2459 15.2885 18.0162 15.0588C17.7865 14.8291 17.4749 14.7 17.15 14.7H12.25C11.9251 14.7 11.6135 14.8291 11.3838 15.0588C11.1541 15.2885 11.025 15.6001 11.025 15.925V25.725" stroke="white" stroke-width="2.45" stroke-linecap="round" stroke-linejoin="round"/>
<path id="Vector_2" d="M3.675 12.25C3.67491 11.8936 3.75258 11.5415 3.90259 11.2182C4.0526 10.8949 4.27133 10.6082 4.54352 10.3782L13.1185 3.02819C13.5607 2.65445 14.121 2.4494 14.7 2.4494C15.279 2.4494 15.8393 2.65445 16.2815 3.02819L24.8565 10.3782C25.1287 10.6082 25.3474 10.8949 25.4974 11.2182C25.6474 11.5415 25.7251 11.8936 25.725 12.25V23.275C25.725 23.9248 25.4669 24.5479 25.0074 25.0074C24.5479 25.4669 23.9248 25.725 23.275 25.725H6.125C5.47522 25.725 4.85205 25.4669 4.39259 25.0074C3.93312 24.5479 3.675 23.9248 3.675 23.275V12.25Z" stroke="white" stroke-width="2.45" stroke-linecap="round" stroke-linejoin="round"/>
</g>
</svg>
