<svg preserveAspectRatio="none" width="100%" height="100%" overflow="visible" style="display: block;" viewBox="0 0 56 56" fill="none" xmlns="http://www.w3.org/2000/svg">
<g id="Icon">
<path id="Vector" d="M14 25.6667H23.3333" stroke="var(--stroke-0, white)" stroke-width="5.83333" stroke-linecap="round" stroke-linejoin="round"/>
<path id="Vector_2" d="M18.6667 21V30.3333" stroke="var(--stroke-0, white)" stroke-width="5.83333" stroke-linecap="round" stroke-linejoin="round"/>
<path id="Vector_3" d="M35 28H35.0233" stroke="var(--stroke-0, white)" stroke-width="5.83333" stroke-linecap="round" stroke-linejoin="round"/>
<path id="Vector_4" d="M42 23.3333H42.0233" stroke="var(--stroke-0, white)" stroke-width="5.83333" stroke-linecap="round" stroke-linejoin="round"/>
<path id="Vector_5" d="M40.4133 11.6667H15.5867C13.2773 11.6672 11.0502 12.5239 9.33575 14.0711C7.62132 15.6183 6.54137 17.7461 6.30467 20.0433C6.29067 20.1647 6.28133 20.279 6.265 20.398C6.076 21.9707 4.66667 33.7307 4.66667 37.3333C4.66667 39.1899 5.40416 40.9703 6.71692 42.2831C8.02967 43.5958 9.81015 44.3333 11.6667 44.3333C14 44.3333 15.1667 43.1667 16.3333 42L19.6327 38.7007C20.5076 37.8254 21.6944 37.3336 22.932 37.3333H33.068C34.3056 37.3336 35.4924 37.8254 36.3673 38.7007L39.6667 42C40.8333 43.1667 42 44.3333 44.3333 44.3333C46.1899 44.3333 47.9703 43.5958 49.2831 42.2831C50.5958 40.9703 51.3333 39.1899 51.3333 37.3333C51.3333 33.7283 49.924 21.9707 49.735 20.398C49.7187 20.2813 49.7093 20.1647 49.6953 20.0457C49.4592 17.7481 48.3795 15.6196 46.665 14.0719C44.9505 12.5243 42.723 11.6673 40.4133 11.6667Z" stroke="var(--stroke-0, white)" stroke-width="5.83333" stroke-linecap="round" stroke-linejoin="round"/>
</g>
</svg>
