<svg preserveAspectRatio="none" width="100%" height="100%" overflow="visible" style="display: block;" viewBox="0 0 21.0976 21.0976" fill="none" xmlns="http://www.w3.org/2000/svg">
<g id="Icon">
<path id="Vector" d="M3.51627 12.3069C3.34992 12.3075 3.18682 12.2608 3.04592 12.1724C2.90503 12.084 2.79212 11.9574 2.72031 11.8073C2.64851 11.6572 2.62075 11.4899 2.64028 11.3247C2.6598 11.1595 2.72579 11.0032 2.83059 10.874L11.5334 1.90756C11.5986 1.8322 11.6876 1.78128 11.7856 1.76315C11.8837 1.74503 11.9849 1.76076 12.0729 1.80779C12.1608 1.85481 12.2301 1.93032 12.2694 2.02193C12.3088 2.11354 12.3158 2.2158 12.2893 2.31193L10.6015 7.60391C10.5518 7.73711 10.5351 7.88039 10.5528 8.02147C10.5706 8.16255 10.6223 8.29721 10.7036 8.4139C10.7848 8.53059 10.8932 8.62583 11.0193 8.69145C11.1455 8.75707 11.2857 8.79111 11.4279 8.79065H17.5813C17.7477 8.79008 17.9108 8.83673 18.0517 8.92516C18.1926 9.0136 18.3055 9.1402 18.3773 9.29026C18.4491 9.44031 18.4768 9.60766 18.4573 9.77286C18.4378 9.93807 18.3718 10.0943 18.267 10.2235L9.56424 19.19C9.49896 19.2654 9.41 19.3163 9.31197 19.3344C9.21393 19.3525 9.11265 19.3368 9.02473 19.2898C8.93682 19.2428 8.86751 19.1672 8.82817 19.0756C8.78883 18.984 8.78181 18.8818 8.80825 18.7856L10.4961 13.4937C10.5458 13.3605 10.5625 13.2172 10.5448 13.0761C10.527 12.935 10.4753 12.8003 10.394 12.6837C10.3128 12.567 10.2044 12.4717 10.0783 12.4061C9.95211 12.3405 9.81192 12.3065 9.66973 12.3069H3.51627Z" fill="var(--fill-0, #FDC700)" stroke="var(--stroke-0, #FDC700)" stroke-width="1.75813" stroke-linecap="round" stroke-linejoin="round"/>
</g>
</svg>
