<svg preserveAspectRatio="none" width="100%" height="100%" overflow="visible" style="display: block;" viewBox="0 0 32 32" fill="none" xmlns="http://www.w3.org/2000/svg">
<g id="Icon" clip-path="url(#clip0_12_13)">
<path id="Vector" d="M11.588 2.91733C5.188 2.91733 -4.76837e-07 7.30133 -4.76837e-07 12.7067C-4.76837e-07 15.656 1.56 18.3107 4.00267 20.1067C4.13821 20.205 4.23884 20.344 4.28992 20.5035C4.341 20.6629 4.33986 20.8346 4.28667 20.9933L3.76667 22.9667C3.74133 23.06 3.70267 23.1547 3.70267 23.2507C3.70267 23.468 3.876 23.644 4.08933 23.644C4.16874 23.6408 4.24576 23.6159 4.312 23.572L6.84933 22.0867C6.98976 21.9971 7.14795 21.939 7.31299 21.9164C7.47804 21.8939 7.64601 21.9074 7.80533 21.956C9.03451 22.3129 10.3081 22.4938 11.588 22.4933C11.956 22.4933 12.312 22.4573 12.6693 22.4267C11.5267 18.9893 12.8787 15.7973 15.2453 13.832C17.516 11.9453 20.4213 11.192 23.0493 11.3813C22.2813 6.604 17.4547 2.91733 11.588 2.91733ZM7.71333 7.988C8.56933 7.988 9.26267 8.69333 9.26267 9.56133C9.26407 9.7662 9.22511 9.96933 9.14801 10.1591C9.07091 10.3489 8.95718 10.5217 8.81331 10.6676C8.66944 10.8134 8.49825 10.9295 8.30951 11.0092C8.12078 11.0889 7.9182 11.1306 7.71333 11.132C7.50836 11.1306 7.30566 11.0888 7.11684 11.0091C6.92802 10.9293 6.75677 10.8131 6.61289 10.6671C6.469 10.5211 6.35529 10.3482 6.27827 10.1582C6.20125 9.96825 6.16242 9.76498 6.164 9.56C6.164 8.692 6.85733 7.98667 7.71333 7.98667V7.988ZM15.464 7.988C16.32 7.988 17.0133 8.69333 17.0133 9.56133C17.0147 9.7662 16.9758 9.96933 16.8987 10.1591C16.8216 10.3489 16.7078 10.5217 16.564 10.6676C16.4201 10.8134 16.2489 10.9295 16.0602 11.0092C15.8714 11.0889 15.6689 11.1306 15.464 11.132C15.2591 11.1306 15.0566 11.0889 14.8678 11.0092C14.6791 10.9295 14.5079 10.8134 14.364 10.6676C14.2202 10.5217 14.1064 10.3489 14.0293 10.1591C13.9522 9.96933 13.9133 9.7662 13.9147 9.56133C13.9147 8.69333 14.608 7.988 15.464 7.988Z" fill="var(--fill-0, #00A63E)"/>
<path id="Vector_2" d="M31.6787 15.1147C31.6787 10.4107 27.1987 6.58667 21.6787 6.58667C16.1587 6.58667 11.6787 10.4107 11.6787 15.1147C11.6787 19.8187 16.1587 23.6427 21.6787 23.6427C22.7947 23.6427 23.8667 23.4973 24.8827 23.2253C25.2413 23.12 25.6347 23.1813 25.944 23.3907L28.148 24.68C28.2016 24.7154 28.2638 24.7357 28.328 24.7387C28.5067 24.7387 28.648 24.5907 28.648 24.408C28.648 24.328 28.6173 24.248 28.596 24.172L28.144 22.4547C28.0958 22.3182 28.0925 22.1698 28.1348 22.0314C28.177 21.8929 28.2625 21.7717 28.3787 21.6853C30.5013 20.1253 31.6787 17.7827 31.6787 15.1147ZM18.2067 16.3947C18.0386 16.3947 17.8721 16.3616 17.7168 16.2972C17.5615 16.2329 17.4204 16.1386 17.3016 16.0198C17.1827 15.9009 17.0884 15.7598 17.0241 15.6045C16.9598 15.4492 16.9267 15.2828 16.9267 15.1147C16.9267 14.7752 17.0615 14.4496 17.3016 14.2096C17.5416 13.9695 17.8672 13.8347 18.2067 13.8347C18.5461 13.8347 18.8717 13.9695 19.1118 14.2096C19.3518 14.4496 19.4867 14.7752 19.4867 15.1147C19.4867 15.2828 19.4536 15.4492 19.3892 15.6045C19.3249 15.7598 19.2306 15.9009 19.1118 16.0198C18.9929 16.1386 18.8518 16.2329 18.6965 16.2972C18.5412 16.3616 18.3748 16.3947 18.2067 16.3947ZM23.7267 16.3947C23.5586 16.3947 23.3921 16.3616 23.2368 16.2972C23.0815 16.2329 22.9404 16.1386 22.8216 16.0198C22.7027 15.9009 22.6084 15.7598 22.5441 15.6045C22.4798 15.4492 22.4467 15.2828 22.4467 15.1147C22.4467 14.7752 22.5815 14.4496 22.8216 14.2096C23.0616 13.9695 23.3872 13.8347 23.7267 13.8347C24.0661 13.8347 24.3917 13.9695 24.6318 14.2096C24.8718 14.4496 25.0067 14.7752 25.0067 15.1147C25.0067 15.2828 24.9736 15.4492 24.9092 15.6045C24.8449 15.7598 24.7506 15.9009 24.6318 16.0198C24.5129 16.1386 24.3718 16.2329 24.2165 16.2972C24.0612 16.3616 23.8948 16.3947 23.7267 16.3947Z" fill="var(--fill-0, #00A63E)"/>
</g>
<defs>
<clipPath id="clip0_12_13">
<rect width="32" height="32" fill="white"/>
</clipPath>
</defs>
</svg>
