<svg preserveAspectRatio="none" width="100%" height="100%" overflow="visible" style="display: block;" viewBox="0 0 32 32" fill="none" xmlns="http://www.w3.org/2000/svg">
<g id="Icon" clip-path="url(#clip0_12_26)">
<path id="Vector" d="M28.5267 20.0467C28.2004 19.0298 27.8434 18.0231 27.456 17.028L26.0173 13.4347C26.0187 13.392 26.036 12.6853 26.036 12.32C26.0347 6.176 23.1347 -4.76837e-07 16 -4.76837e-07C8.86533 -4.76837e-07 5.96533 6.176 5.96533 12.3213C5.96533 12.6867 5.98267 13.3933 5.984 13.436L4.544 17.0293C4.15662 18.0243 3.80001 19.031 3.47467 20.048C2.11333 24.4253 2.55467 26.2387 2.89067 26.2787C3.61067 26.3653 5.69467 22.9827 5.69467 22.9827C5.69467 24.9413 6.70267 27.4987 8.88667 29.344C8.07067 29.5947 7.06933 29.9827 6.42667 30.4573C5.848 30.884 5.92133 31.3187 6.02533 31.4947C6.48267 32.2653 13.8693 31.9867 16.0013 31.7467C18.1347 31.9867 25.5213 32.2653 25.9787 31.4947C26.0827 31.3187 26.1547 30.884 25.5773 30.4573C24.9333 29.9827 23.9333 29.596 23.116 29.3427C25.2987 27.4973 26.3067 24.94 26.3067 22.9813C26.3067 22.9813 28.3907 26.364 29.1107 26.2773C29.4453 26.2373 29.8853 24.424 28.5267 20.0467Z" fill="var(--fill-0, #155DFC)"/>
</g>
<defs>
<clipPath id="clip0_12_26">
<rect width="32" height="32" fill="white"/>
</clipPath>
</defs>
</svg>
