<svg preserveAspectRatio="none" width="100%" height="100%" overflow="visible" style="display: block;" viewBox="0 0 20 20" fill="none" xmlns="http://www.w3.org/2000/svg">
<g id="Icon">
<path id="Vector" d="M1.66667 7.91668C1.66668 6.98934 1.94799 6.08383 2.47344 5.31973C2.99889 4.55563 3.74376 3.96889 4.60967 3.63701C5.47558 3.30513 6.4218 3.24371 7.32334 3.46088C8.22489 3.67804 9.03935 4.16357 9.65917 4.85334C9.70282 4.90002 9.7556 4.93723 9.81423 4.96267C9.87286 4.98812 9.93609 5.00124 10 5.00124C10.0639 5.00124 10.1271 4.98812 10.1858 4.96267C10.2444 4.93723 10.2972 4.90002 10.3408 4.85334C10.9587 4.15909 11.7734 3.66948 12.6764 3.44968C13.5794 3.22987 14.5279 3.2903 15.3957 3.62291C16.2635 3.95553 17.0095 4.54455 17.5343 5.31159C18.059 6.07863 18.3378 6.98731 18.3333 7.91668C18.3333 9.82501 17.0833 11.25 15.8333 12.5L11.2567 16.9275C11.1014 17.1058 10.9099 17.2491 10.695 17.3478C10.4801 17.4464 10.2467 17.4982 10.0102 17.4997C9.77378 17.5012 9.53971 17.4524 9.32357 17.3564C9.10744 17.2605 8.91419 17.1197 8.75667 16.9433L4.16667 12.5C2.91667 11.25 1.66667 9.83334 1.66667 7.91668Z" fill="var(--fill-0, #FFA2A2)" stroke="var(--stroke-0, #FFA2A2)" stroke-width="1.66667" stroke-linecap="round" stroke-linejoin="round"/>
</g>
</svg>
