<svg preserveAspectRatio="none" width="100%" height="100%" overflow="visible" style="display: block;" viewBox="0 0 32 32" fill="none" xmlns="http://www.w3.org/2000/svg">
<g id="Icon">
<path id="Vector" d="M13.248 27.0347C7.53867 27.4693 2.608 25 2.22933 21.5187C1.84933 18.0373 6.23867 14.8107 11.948 14.376C17.6587 13.9413 22.5893 16.4107 22.968 19.892C23.348 23.3733 18.9587 26.6 13.248 27.0347ZM27.5547 17.9093C27.0733 17.7693 26.748 17.6707 26.996 17.048C27.536 15.7267 27.592 14.584 27.0107 13.772C25.9187 12.2493 22.9373 12.3307 19.528 13.7387C19.528 13.7387 18.4573 14.1947 18.7307 13.3667C19.256 11.7253 19.1747 10.3587 18.3213 9.56533C16.3893 7.76667 11.2533 9.63333 6.844 13.7333C3.548 16.9427 1.34133 20.136 1.33333 22.8213C1.33333 27.96 7.92933 31.0827 14.3787 31.0827C22.8373 31.0827 28.4667 26.1747 28.4667 22.2773C28.4667 19.9213 26.48 18.5853 24.888 17.9093H27.5547ZM9.952 26.252C7.232 26.5173 4.88133 25.2907 4.70267 23.512C4.524 21.7333 6.51733 20.064 9.23733 19.8C11.9573 19.5347 14.308 20.7613 14.4867 22.54C14.6653 24.3187 12.672 25.988 9.952 26.252ZM15.5427 21.344C14.8013 21.576 13.972 21.6933 13.0667 21.6747C11.352 21.6373 9.98533 20.9427 10.016 20.1227C10.0467 19.3027 11.452 18.7227 13.1667 18.76C14.072 18.78 14.9013 18.976 15.6427 19.3013C16.8627 19.836 17.2693 20.556 16.876 21.344H15.5427Z" fill="var(--fill-0, #E7000B)"/>
</g>
</svg>
