<svg preserveAspectRatio="none" width="100%" height="100%" overflow="visible" style="display: block;" viewBox="0 0 16 16" fill="none" xmlns="http://www.w3.org/2000/svg">
<g id="Icon" opacity="0.908519">
<path id="Vector" d="M7.68333 1.53001C7.71255 1.47098 7.75768 1.4213 7.81363 1.38656C7.86959 1.35182 7.93414 1.33341 8 1.33341C8.06586 1.33341 8.13041 1.35182 8.18636 1.38656C8.24232 1.4213 8.28745 1.47098 8.31667 1.53001L9.85667 4.64934C9.95812 4.85466 10.1079 5.03228 10.2931 5.16698C10.4783 5.30168 10.6934 5.38942 10.92 5.42268L14.364 5.92668C14.4293 5.93613 14.4906 5.96366 14.541 6.00614C14.5914 6.04863 14.629 6.10438 14.6493 6.16708C14.6697 6.22979 14.6722 6.29695 14.6564 6.36097C14.6406 6.42499 14.6072 6.48331 14.56 6.52934L12.0693 8.95468C11.9051 9.11475 11.7822 9.31233 11.7112 9.53043C11.6403 9.74853 11.6234 9.9806 11.662 10.2067L12.25 13.6333C12.2615 13.6986 12.2545 13.7657 12.2297 13.8271C12.2049 13.8885 12.1633 13.9418 12.1097 13.9807C12.0561 14.0196 11.9927 14.0427 11.9266 14.0473C11.8605 14.0519 11.7945 14.0378 11.736 14.0067L8.65733 12.388C8.45448 12.2815 8.22879 12.2258 7.99967 12.2258C7.77055 12.2258 7.54485 12.2815 7.342 12.388L4.264 14.0067C4.20555 14.0376 4.1396 14.0515 4.07363 14.0468C4.00767 14.0422 3.94434 14.0191 3.89086 13.9802C3.83738 13.9413 3.79589 13.8881 3.7711 13.8268C3.74632 13.7655 3.73924 13.6985 3.75067 13.6333L4.338 10.2073C4.3768 9.98117 4.35999 9.74894 4.28902 9.53071C4.21806 9.31247 4.09507 9.11478 3.93067 8.95468L1.44 6.53001C1.3924 6.48403 1.35866 6.42561 1.34264 6.36139C1.32662 6.29718 1.32896 6.22976 1.34939 6.1668C1.36981 6.10385 1.40751 6.0479 1.45818 6.00533C1.50886 5.96276 1.57047 5.93528 1.636 5.92601L5.07933 5.42268C5.30617 5.38968 5.52159 5.30205 5.70706 5.16734C5.89252 5.03262 6.04247 4.85486 6.144 4.64934L7.68333 1.53001Z" fill="var(--fill-0, #FDA5D5)" stroke="var(--stroke-0, #FDA5D5)" stroke-width="1.33333" stroke-linecap="round" stroke-linejoin="round"/>
</g>
</svg>
