<svg preserveAspectRatio="none" width="100%" height="100%" overflow="visible" style="display: block;" viewBox="0 0 26.0913 26.0913" fill="none" xmlns="http://www.w3.org/2000/svg">
<g id="Icon">
<path id="Vector" d="M12.5293 2.49498C12.5769 2.39873 12.6505 2.3177 12.7417 2.26106C12.833 2.20441 12.9383 2.17439 13.0457 2.17439C13.1531 2.17439 13.2583 2.20441 13.3496 2.26106C13.4408 2.3177 13.5144 2.39873 13.562 2.49498L16.0733 7.5817C16.2388 7.9165 16.483 8.20616 16.785 8.42581C17.087 8.64546 17.4378 8.78855 17.8073 8.84278L23.4235 9.66466C23.5299 9.68007 23.6299 9.72496 23.7121 9.79424C23.7943 9.86352 23.8555 9.95443 23.8888 10.0567C23.922 10.1589 23.926 10.2685 23.9003 10.3729C23.8745 10.4773 23.8201 10.5724 23.7431 10.6474L19.6815 14.6024C19.4137 14.8635 19.2133 15.1857 19.0976 15.5413C18.9819 15.897 18.9543 16.2754 19.0173 16.6441L19.9762 22.232C19.9949 22.3383 19.9835 22.4478 19.943 22.548C19.9025 22.6481 19.8348 22.7349 19.7474 22.7984C19.66 22.8618 19.5565 22.8995 19.4487 22.907C19.341 22.9145 19.2333 22.8915 19.138 22.8408L14.1176 20.2012C13.7868 20.0275 13.4187 19.9367 13.0451 19.9367C12.6715 19.9367 12.3034 20.0275 11.9726 20.2012L6.95333 22.8408C6.85802 22.8912 6.75047 22.9139 6.6429 22.9063C6.53533 22.8986 6.43207 22.8609 6.34486 22.7975C6.25764 22.7341 6.18998 22.6475 6.14956 22.5475C6.10915 22.4475 6.0976 22.3382 6.11624 22.232L7.074 16.6452C7.13727 16.2763 7.10986 15.8976 6.99414 15.5418C6.87842 15.1859 6.67786 14.8635 6.40976 14.6024L2.34822 10.6485C2.27059 10.5735 2.21558 10.4783 2.18945 10.3736C2.16333 10.2688 2.16714 10.1589 2.20045 10.0562C2.23376 9.95358 2.29524 9.86234 2.37787 9.79292C2.4605 9.7235 2.56097 9.67868 2.66784 9.66357L8.2829 8.84278C8.65281 8.78897 9.0041 8.64607 9.30653 8.42639C9.60897 8.20671 9.85349 7.91683 10.0191 7.5817L12.5293 2.49498Z" fill="var(--fill-0, #FFDF20)" stroke="var(--stroke-0, #FFDF20)" stroke-width="2.17428" stroke-linecap="round" stroke-linejoin="round"/>
</g>
</svg>
