<svg preserveAspectRatio="none" width="100%" height="100%" overflow="visible" style="display: block;" viewBox="0 0 12 12" fill="none" xmlns="http://www.w3.org/2000/svg">
<g id="Icon" clip-path="url(#clip0_33_168)">
<path id="Vector" d="M5.7625 1.14751C5.78441 1.10324 5.81826 1.06597 5.86023 1.03992C5.90219 1.01387 5.9506 1.00006 6 1.00006C6.0494 1.00006 6.09781 1.01387 6.13977 1.03992C6.18174 1.06597 6.21559 1.10324 6.2375 1.14751L7.3925 3.48701C7.46859 3.64099 7.58091 3.77421 7.71981 3.87523C7.85872 3.97626 8.02006 4.04206 8.19 4.06701L10.773 4.44501C10.8219 4.4521 10.8679 4.47274 10.9057 4.50461C10.9436 4.53647 10.9717 4.57828 10.987 4.62531C11.0023 4.67234 11.0041 4.72271 10.9923 4.77073C10.9805 4.81874 10.9554 4.86248 10.92 4.89701L9.052 6.71601C8.92881 6.83606 8.83664 6.98425 8.78342 7.14782C8.7302 7.3114 8.71753 7.48545 8.7465 7.65501L9.1875 10.225C9.19614 10.2739 9.19085 10.3243 9.17225 10.3703C9.15364 10.4164 9.12246 10.4563 9.08227 10.4855C9.04208 10.5147 8.99449 10.532 8.94493 10.5355C8.89538 10.5389 8.84585 10.5284 8.802 10.505L6.493 9.29101C6.34086 9.21112 6.17159 9.16938 5.99975 9.16938C5.82791 9.16938 5.65864 9.21112 5.5065 9.29101L3.198 10.505C3.15417 10.5282 3.1047 10.5387 3.05523 10.5351C3.00575 10.5316 2.95826 10.5143 2.91815 10.4851C2.87804 10.4559 2.84692 10.4161 2.82833 10.3701C2.80974 10.3241 2.80443 10.2739 2.813 10.225L3.2535 7.65551C3.2826 7.48587 3.26999 7.31171 3.21677 7.14803C3.16355 6.98436 3.0713 6.83609 2.948 6.71601L1.08 4.89751C1.0443 4.86302 1.019 4.81921 1.00698 4.77104C0.994965 4.72288 0.996718 4.67232 1.01204 4.6251C1.02736 4.57789 1.05563 4.53593 1.09364 4.504C1.13164 4.47207 1.17785 4.45146 1.227 4.44451L3.8095 4.06701C3.97963 4.04226 4.14119 3.97654 4.28029 3.8755C4.41939 3.77447 4.53185 3.64114 4.608 3.48701L5.7625 1.14751Z" fill="#F0B100" stroke="#F0B100" stroke-linecap="round" stroke-linejoin="round"/>
</g>
<defs>
<clipPath id="clip0_33_168">
<rect width="12" height="12" fill="white"/>
</clipPath>
</defs>
</svg>
