<svg preserveAspectRatio="none" width="100%" height="100%" overflow="visible" style="display: block;" viewBox="0 0 20 20" fill="none" xmlns="http://www.w3.org/2000/svg">
<g id="Icon">
<path id="Vector" d="M9.60417 1.91251C9.64069 1.83873 9.6971 1.77662 9.76704 1.7332C9.83699 1.68978 9.91767 1.66677 10 1.66677C10.0823 1.66677 10.163 1.68978 10.233 1.7332C10.3029 1.77662 10.3593 1.83873 10.3958 1.91251L12.3208 5.81168C12.4476 6.06832 12.6348 6.29035 12.8664 6.45872C13.0979 6.6271 13.3668 6.73677 13.65 6.77835L17.955 7.40835C18.0366 7.42017 18.1132 7.45457 18.1762 7.50768C18.2393 7.56079 18.2862 7.63047 18.3117 7.70885C18.3372 7.78723 18.3402 7.87118 18.3205 7.95121C18.3008 8.03123 18.259 8.10414 18.2 8.16168L15.0867 11.1933C14.8813 11.3934 14.7277 11.6404 14.639 11.913C14.5503 12.1857 14.5292 12.4758 14.5775 12.7583L15.3125 17.0417C15.3269 17.1232 15.3181 17.2071 15.2871 17.2839C15.2561 17.3607 15.2041 17.4272 15.1371 17.4758C15.0701 17.5245 14.9908 17.5533 14.9082 17.5591C14.8256 17.5648 14.7431 17.5473 14.67 17.5083L10.8217 15.485C10.5681 15.3519 10.286 15.2823 9.99958 15.2823C9.71318 15.2823 9.43107 15.3519 9.1775 15.485L5.33 17.5083C5.25694 17.547 5.1745 17.5644 5.09204 17.5586C5.00959 17.5527 4.93043 17.5238 4.86358 17.4752C4.79673 17.4266 4.74486 17.3602 4.71388 17.2835C4.6829 17.2069 4.67405 17.1231 4.68833 17.0417L5.4225 12.7592C5.471 12.4765 5.44999 12.1862 5.36128 11.9134C5.27258 11.6406 5.11884 11.3935 4.91333 11.1933L1.8 8.16251C1.74049 8.10504 1.69833 8.03201 1.6783 7.95174C1.65828 7.87147 1.6612 7.78719 1.68673 7.70851C1.71227 7.62982 1.75939 7.55988 1.82273 7.50667C1.88607 7.45345 1.96309 7.4191 2.045 7.40751L6.34917 6.77835C6.63271 6.7371 6.90199 6.62756 7.13382 6.45917C7.36565 6.29078 7.55309 6.06857 7.68 5.81168L9.60417 1.91251Z" fill="var(--fill-0, #F0B100)" stroke="var(--stroke-0, #F0B100)" stroke-width="1.66667" stroke-linecap="round" stroke-linejoin="round"/>
</g>
</svg>
