<svg preserveAspectRatio="none" width="100%" height="100%" overflow="visible" style="display: block;" viewBox="0 0 12 12" fill="none" xmlns="http://www.w3.org/2000/svg">
<g id="Icon" clip-path="url(#clip0_33_171)">
<path id="Vector" d="M2 7.00002C1.90538 7.00034 1.81261 6.97381 1.73247 6.92351C1.65233 6.87321 1.58811 6.8012 1.54727 6.71585C1.50643 6.6305 1.49064 6.53531 1.50175 6.44135C1.51285 6.34739 1.55039 6.2585 1.61 6.18502L6.56 1.08502C6.59713 1.04216 6.64773 1.0132 6.70349 1.00289C6.75925 0.992575 6.81686 1.00153 6.86686 1.02827C6.91686 1.05502 6.95629 1.09797 6.97866 1.15007C7.00104 1.20218 7.00503 1.26034 6.99 1.31502L6.03 4.32502C6.00169 4.40078 5.99218 4.48228 6.00229 4.56252C6.0124 4.64277 6.04183 4.71936 6.08804 4.78573C6.13426 4.85211 6.19588 4.90628 6.26763 4.9436C6.33938 4.98092 6.41912 5.00028 6.5 5.00002H10C10.0946 4.9997 10.1874 5.02623 10.2675 5.07653C10.3477 5.12683 10.4119 5.19884 10.4527 5.28419C10.4936 5.36954 10.5093 5.46473 10.4982 5.55869C10.4871 5.65266 10.4496 5.74154 10.39 5.81502L5.44 10.915C5.40287 10.9579 5.35227 10.9868 5.29651 10.9972C5.24074 11.0075 5.18313 10.9985 5.13313 10.9718C5.08313 10.945 5.0437 10.9021 5.02133 10.85C4.99895 10.7979 4.99496 10.7397 5.01 10.685L5.97 7.67502C5.9983 7.59926 6.00781 7.51776 5.9977 7.43752C5.98759 7.35727 5.95817 7.28068 5.91195 7.21431C5.86574 7.14793 5.80411 7.09376 5.73236 7.05644C5.66061 7.01912 5.58087 6.99976 5.5 7.00002H2Z" fill="var(--fill-0, white)" stroke="var(--stroke-0, white)" stroke-linecap="round" stroke-linejoin="round"/>
</g>
<defs>
<clipPath id="clip0_33_171">
<rect width="12" height="12" fill="white"/>
</clipPath>
</defs>
</svg>
