<svg preserveAspectRatio="none" width="100%" height="100%" overflow="visible" style="display: block;" viewBox="0 0 31.987 31.987" fill="none" xmlns="http://www.w3.org/2000/svg">
<g id="Icon" clip-path="url(#clip0_38_209)">
<path id="Vector" d="M28.5151 20.0385C28.189 19.0221 27.8321 18.0158 27.4448 17.0211L26.0068 13.4292C26.0081 13.3866 26.0254 12.6802 26.0254 12.315C26.0241 6.17349 23.1253 -2.32697e-07 15.9935 -2.32697e-07C8.86173 -2.32697e-07 5.96291 6.17349 5.96291 12.3163C5.96291 12.6815 5.98024 13.3879 5.98157 13.4305L4.54215 17.0224C4.15494 18.017 3.79847 19.0233 3.47325 20.0399C2.11247 24.4154 2.55363 26.228 2.88949 26.268C3.6092 26.3546 5.69235 22.9733 5.69235 22.9733C5.69235 24.9312 6.69994 27.4875 8.88306 29.3321C8.06739 29.5826 7.06646 29.9705 6.42406 30.445C5.84562 30.8715 5.91893 31.3059 6.02289 31.4819C6.48003 32.2522 13.8637 31.9737 15.9948 31.7338C18.1273 31.9737 25.511 32.2522 25.9681 31.4819C26.0721 31.3059 26.144 30.8715 25.5669 30.445C24.9232 29.9705 23.9236 29.584 23.1066 29.3307C25.2884 27.4862 26.296 24.9299 26.296 22.972C26.296 22.972 28.3791 26.3533 29.0988 26.2667C29.4334 26.2267 29.8732 24.4141 28.5151 20.0385Z" fill="var(--fill-0, #155DFC)"/>
</g>
<defs>
<clipPath id="clip0_38_209">
<rect width="31.987" height="31.987" fill="white"/>
</clipPath>
</defs>
</svg>
