<svg preserveAspectRatio="none" width="100%" height="100%" overflow="visible" style="display: block;" viewBox="0 0 31.987 31.987" fill="none" xmlns="http://www.w3.org/2000/svg">
<g id="Icon" clip-path="url(#clip0_38_188)">
<path id="Vector" d="M11.5833 2.91615C5.18589 2.91615 -2.32697e-07 7.29837 -2.32697e-07 12.7015C-2.32697e-07 15.6496 1.55937 18.3032 4.00104 20.0985C4.13653 20.1968 4.23712 20.3357 4.28818 20.4951C4.33924 20.6546 4.3381 20.8261 4.28492 20.9848L3.76514 22.9573C3.73981 23.0506 3.70116 23.1453 3.70116 23.2412C3.70116 23.4585 3.87443 23.6344 4.08767 23.6344C4.16705 23.6312 4.24403 23.6063 4.31025 23.5624L6.84655 22.0777C6.98692 21.9881 7.14505 21.9301 7.31002 21.9075C7.475 21.885 7.64291 21.8985 7.80216 21.9471C9.03084 22.3038 10.3039 22.4847 11.5833 22.4842C11.9511 22.4842 12.307 22.4482 12.6642 22.4176C11.522 18.9816 12.8734 15.7909 15.2391 13.8264C17.5089 11.9405 20.413 11.1875 23.04 11.3767C22.2723 6.60132 17.4476 2.91615 11.5833 2.91615ZM7.7102 7.98476C8.56585 7.98476 9.2589 8.6898 9.2589 9.55745C9.26031 9.76223 9.22136 9.96528 9.14429 10.155C9.06722 10.3447 8.95354 10.5174 8.80973 10.6632C8.66591 10.809 8.49479 10.925 8.30614 11.0047C8.11748 11.0844 7.91498 11.1261 7.7102 11.1275C7.50531 11.1261 7.3027 11.0843 7.11395 11.0046C6.92521 10.9248 6.75403 10.8087 6.6102 10.6628C6.46637 10.5168 6.35271 10.344 6.27572 10.1541C6.19873 9.9642 6.15992 9.76101 6.1615 9.55612C6.1615 8.68847 6.85455 7.98342 7.7102 7.98342V7.98476ZM15.4577 7.98476C16.3134 7.98476 17.0064 8.6898 17.0064 9.55745C17.0078 9.76223 16.9689 9.96528 16.8918 10.155C16.8147 10.3447 16.7011 10.5174 16.5572 10.6632C16.4134 10.809 16.2423 10.925 16.0537 11.0047C15.865 11.0844 15.6625 11.1261 15.4577 11.1275C15.2529 11.1261 15.0504 11.0844 14.8618 11.0047C14.6731 10.925 14.502 10.809 14.3582 10.6632C14.2144 10.5174 14.1007 10.3447 14.0236 10.155C13.9466 9.96528 13.9076 9.76223 13.909 9.55745C13.909 8.6898 14.6021 7.98476 15.4577 7.98476Z" fill="var(--fill-0, #00A63E)"/>
<path id="Vector_2" d="M31.6658 15.1085C31.6658 10.4064 27.1876 6.58399 21.6699 6.58399C16.1521 6.58399 11.6739 10.4064 11.6739 15.1085C11.6739 19.8106 16.1521 23.6331 21.6699 23.6331C22.7854 23.6331 23.857 23.4878 24.8726 23.2159C25.2311 23.1106 25.6243 23.1719 25.9335 23.3812L28.1366 24.67C28.1901 24.7054 28.2523 24.7257 28.3165 24.7286C28.4951 24.7286 28.6364 24.5807 28.6364 24.3981C28.6364 24.3181 28.6057 24.2381 28.5844 24.1622L28.1326 22.4455C28.0844 22.3091 28.0811 22.1608 28.1233 22.0224C28.1656 21.8841 28.251 21.7628 28.3671 21.6765C30.4889 20.1172 31.6658 17.7754 31.6658 15.1085ZM18.1993 16.388C18.0312 16.388 17.8649 16.3549 17.7096 16.2906C17.5544 16.2263 17.4134 16.1321 17.2945 16.0133C17.1757 15.8944 17.0815 15.7534 17.0172 15.5982C16.9529 15.4429 16.9198 15.2766 16.9198 15.1085C16.9198 14.7692 17.0546 14.4437 17.2945 14.2038C17.5345 13.9638 17.8599 13.829 18.1993 13.829C18.5386 13.829 18.864 13.9638 19.104 14.2038C19.3439 14.4437 19.4787 14.7692 19.4787 15.1085C19.4787 15.2766 19.4457 15.4429 19.3814 15.5982C19.3171 15.7534 19.2228 15.8944 19.104 16.0133C18.9852 16.1321 18.8441 16.2263 18.6889 16.2906C18.5337 16.3549 18.3673 16.388 18.1993 16.388ZM23.717 16.388C23.549 16.388 23.3826 16.3549 23.2274 16.2906C23.0722 16.2263 22.9311 16.1321 22.8123 16.0133C22.6935 15.8944 22.5992 15.7534 22.5349 15.5982C22.4706 15.4429 22.4375 15.2766 22.4375 15.1085C22.4375 14.7692 22.5723 14.4437 22.8123 14.2038C23.0522 13.9638 23.3777 13.829 23.717 13.829C24.0564 13.829 24.3818 13.9638 24.6218 14.2038C24.8617 14.4437 24.9965 14.7692 24.9965 15.1085C24.9965 15.2766 24.9634 15.4429 24.8991 15.5982C24.8348 15.7534 24.7406 15.8944 24.6218 16.0133C24.5029 16.1321 24.3619 16.2263 24.2067 16.2906C24.0514 16.3549 23.8851 16.388 23.717 16.388Z" fill="var(--fill-0, #00A63E)"/>
</g>
<defs>
<clipPath id="clip0_38_188">
<rect width="31.987" height="31.987" fill="white"/>
</clipPath>
</defs>
</svg>
