<svg preserveAspectRatio="none" width="100%" height="100%" overflow="visible" style="display: block;" viewBox="0 0 55.9868 55.9868" fill="none" xmlns="http://www.w3.org/2000/svg">
<g id="Icon">
<path id="Vector" d="M13.9967 25.6606H23.3278" stroke="var(--stroke-0, white)" stroke-width="5.83196" stroke-linecap="round" stroke-linejoin="round"/>
<path id="Vector_2" d="M18.6623 20.9951V30.3262" stroke="var(--stroke-0, white)" stroke-width="5.83196" stroke-linecap="round" stroke-linejoin="round"/>
<path id="Vector_3" d="M34.9918 27.9934H35.0151" stroke="var(--stroke-0, white)" stroke-width="5.83196" stroke-linecap="round" stroke-linejoin="round"/>
<path id="Vector_4" d="M41.9901 23.3278H42.0134" stroke="var(--stroke-0, white)" stroke-width="5.83196" stroke-linecap="round" stroke-linejoin="round"/>
<path id="Vector_5" d="M40.4038 11.6639H15.583C13.2742 11.6645 11.0476 12.5209 9.33355 14.0678C7.61953 15.6146 6.53984 17.742 6.30318 20.0386C6.28919 20.1599 6.27986 20.2742 6.26353 20.3932C6.07457 21.9655 4.66557 33.7227 4.66557 37.3245C4.66557 39.1806 5.40289 40.9607 6.71534 42.2731C8.02778 43.5856 9.80784 44.3229 11.6639 44.3229C13.9967 44.3229 15.1631 43.1565 16.3295 41.9901L19.628 38.6916C20.5028 37.8165 21.6893 37.3248 22.9266 37.3245H33.0602C34.2975 37.3248 35.484 37.8165 36.3588 38.6916L39.6573 41.9901C40.8237 43.1565 41.9901 44.3229 44.3229 44.3229C46.179 44.3229 47.959 43.5856 49.2715 42.2731C50.5839 40.9607 51.3213 39.1806 51.3213 37.3245C51.3213 33.7204 49.9123 21.9655 49.7233 20.3932C49.707 20.2766 49.6976 20.1599 49.6836 20.0409C49.4475 17.7439 48.3681 15.616 46.654 14.0686C44.9399 12.5213 42.713 11.6645 40.4038 11.6639Z" stroke="var(--stroke-0, white)" stroke-width="5.83196" stroke-linecap="round" stroke-linejoin="round"/>
</g>
</svg>
