<svg preserveAspectRatio="none" width="100%" height="100%" overflow="visible" style="display: block;" viewBox="0 0 31.987 31.987" fill="none" xmlns="http://www.w3.org/2000/svg">
<g id="Icon" clip-path="url(#clip0_38_185)">
<path id="Vector" d="M13.2426 27.0237C7.5356 27.4582 2.60694 24.9898 2.22843 21.5099C1.84858 18.03 6.23613 14.8046 11.9431 14.3702C17.6515 13.9357 22.5802 16.404 22.9587 19.8839C23.3385 23.3638 18.951 26.5892 13.2426 27.0237ZM27.5435 17.9021C27.0623 17.7621 26.7371 17.6635 26.985 17.0411C27.5248 15.7203 27.5808 14.5781 26.9997 13.7664C25.9081 12.2444 22.928 12.3257 19.5201 13.7331C19.5201 13.7331 18.4498 14.1889 18.7231 13.3612C19.2482 11.7206 19.1669 10.3545 18.3139 9.56145C16.3827 7.76351 11.2488 9.62942 6.84122 13.7278C3.54656 16.9358 1.34079 20.1278 1.33279 22.8121C1.33279 27.9486 7.92611 31.07 14.3728 31.07C22.8281 31.07 28.4551 26.164 28.4551 22.2683C28.4551 19.9132 26.4692 18.5778 24.8779 17.9021H27.5435ZM9.94796 26.2413C7.22906 26.5066 4.87935 25.2804 4.70076 23.5025C4.52216 21.7245 6.51469 20.0559 9.23358 19.792C11.9525 19.5267 14.3022 20.7529 14.4808 22.5308C14.6594 24.3088 12.6669 25.9774 9.94796 26.2413ZM15.5364 21.3353C14.7953 21.5672 13.9663 21.6845 13.0614 21.6659C11.3474 21.6285 9.98128 20.9342 10.0119 20.1145C10.0426 19.2948 11.4473 18.7151 13.1613 18.7524C14.0663 18.7724 14.8953 18.9683 15.6363 19.2935C16.8558 19.8279 17.2623 20.5476 16.8691 21.3353H15.5364Z" fill="var(--fill-0, #E7000B)"/>
</g>
<defs>
<clipPath id="clip0_38_185">
<rect width="31.987" height="31.987" fill="white"/>
</clipPath>
</defs>
</svg>
