<svg preserveAspectRatio="none" width="100%" height="100%" overflow="visible" style="display: block;" viewBox="0 0 15.9935 15.9935" fill="none" xmlns="http://www.w3.org/2000/svg">
<g id="Icon" clip-path="url(#clip0_38_212)">
<path id="Vector" d="M13.3279 8.66312C13.3279 11.9951 10.9955 13.6611 8.22332 14.6274C8.07815 14.6765 7.92047 14.6742 7.77684 14.6207C4.99797 13.6611 2.66558 11.9951 2.66558 8.66312V3.99835C2.66558 3.82161 2.73579 3.65211 2.86076 3.52713C2.98574 3.40216 3.15524 3.33195 3.33198 3.33195C4.66477 3.33195 6.33076 2.53228 7.49029 1.51936C7.63146 1.39874 7.81106 1.33247 7.99675 1.33247C8.18243 1.33247 8.36203 1.39874 8.50321 1.51936C9.6694 2.53894 11.3287 3.33195 12.6615 3.33195C12.8383 3.33195 13.0078 3.40216 13.1327 3.52713C13.2577 3.65211 13.3279 3.82161 13.3279 3.99835V8.66312Z" stroke="white" stroke-width="1.33279" stroke-linecap="round" stroke-linejoin="round"/>
</g>
<defs>
<clipPath id="clip0_38_212">
<rect width="15.9935" height="15.9935" fill="white"/>
</clipPath>
</defs>
</svg>
