<svg preserveAspectRatio="none" width="100%" height="100%" overflow="visible" style="display: block;" viewBox="0 0 15.9935 15.9935" fill="none" xmlns="http://www.w3.org/2000/svg">
<g id="Icon" clip-path="url(#clip0_41_242)">
<path id="Vector" d="M7.70486 2.17645C7.73363 2.12421 7.77588 2.08064 7.82722 2.0503C7.87856 2.01996 7.93711 2.00396 7.99674 2.00396C8.05638 2.00396 8.11492 2.01996 8.16626 2.0503C8.21761 2.08064 8.25986 2.12421 8.28862 2.17645L10.2558 5.91093C10.3027 5.9974 10.3682 6.07242 10.4476 6.13058C10.5269 6.18875 10.6181 6.22863 10.7147 6.24736C10.8113 6.26609 10.9108 6.26321 11.0061 6.23891C11.1015 6.21462 11.1902 6.16952 11.2661 6.10685L14.1163 3.66518C14.171 3.62068 14.2384 3.59468 14.3088 3.59094C14.3792 3.5872 14.449 3.6059 14.5082 3.64435C14.5673 3.6828 14.6127 3.73902 14.6378 3.80491C14.6629 3.87081 14.6665 3.94298 14.648 4.01104L12.7595 10.8389C12.7209 10.9786 12.6379 11.102 12.5229 11.1903C12.4079 11.2785 12.2673 11.3269 12.1224 11.3281H3.87176C3.7267 11.327 3.58595 11.2787 3.47085 11.1905C3.35575 11.1022 3.2726 10.9788 3.23402 10.8389L1.34612 4.0117C1.32762 3.94364 1.3312 3.87147 1.35634 3.80558C1.38148 3.73968 1.42687 3.68347 1.48599 3.64501C1.54512 3.60656 1.61491 3.58786 1.68534 3.59161C1.75576 3.59535 1.82319 3.62134 1.8779 3.66584L4.72741 6.10752C4.80324 6.17018 4.89201 6.21529 4.98734 6.23958C5.08268 6.26387 5.1822 6.26676 5.27878 6.24803C5.37536 6.2293 5.4666 6.18942 5.54594 6.13125C5.62528 6.07308 5.69075 5.99807 5.73766 5.9116L7.70486 2.17645Z" fill="#FFDF20" stroke="#FFDF20" stroke-width="1.33279" stroke-linecap="round" stroke-linejoin="round"/>
<g id="Vector_2">
<path d="M3.33198 13.9943H12.6615Z" fill="#FFDF20"/>
<path d="M3.33198 13.9943H12.6615" stroke="#FFDF20" stroke-width="1.33279" stroke-linecap="round" stroke-linejoin="round"/>
</g>
</g>
<defs>
<clipPath id="clip0_41_242">
<rect width="15.9935" height="15.9935" fill="white"/>
</clipPath>
</defs>
</svg>
