<svg preserveAspectRatio="none" width="100%" height="100%" overflow="visible" style="display: block;" viewBox="0 0 20.1689 20.1689" fill="none" xmlns="http://www.w3.org/2000/svg">
<g id="Icon">
<path id="Vector" d="M16.8074 6.72296H3.36148C2.89736 6.72296 2.52111 7.09921 2.52111 7.56333V9.24408C2.52111 9.7082 2.89736 10.0844 3.36148 10.0844H16.8074C17.2715 10.0844 17.6478 9.7082 17.6478 9.24408V7.56333C17.6478 7.09921 17.2715 6.72296 16.8074 6.72296Z" stroke="#FF6900" stroke-width="1.68074" stroke-linecap="round" stroke-linejoin="round"/>
<path id="Vector_2" d="M10.0844 6.72296V17.6478" stroke="#FF6900" stroke-width="1.68074" stroke-linecap="round" stroke-linejoin="round"/>
<path id="Vector_3" d="M15.967 10.0844V15.967C15.967 16.4128 15.79 16.8403 15.4748 17.1555C15.1596 17.4707 14.7321 17.6478 14.2863 17.6478H5.88259C5.43683 17.6478 5.00933 17.4707 4.69413 17.1555C4.37893 16.8403 4.20185 16.4128 4.20185 15.967V10.0844" stroke="#FF6900" stroke-width="1.68074" stroke-linecap="round" stroke-linejoin="round"/>
<path id="Vector_4" d="M6.30278 6.72292C5.74558 6.72292 5.2112 6.50157 4.8172 6.10757C4.4232 5.71357 4.20185 5.1792 4.20185 4.62199C4.20185 4.06479 4.4232 3.53042 4.8172 3.13642C5.2112 2.74242 5.74558 2.52107 6.30278 2.52107C7.11347 2.50694 7.90791 2.90029 8.58248 3.64982C9.25706 4.39935 9.78046 5.47027 10.0844 6.72292C10.3884 5.47027 10.9118 4.39935 11.5864 3.64982C12.261 2.90029 13.0554 2.50694 13.8661 2.52107C14.4233 2.52107 14.9577 2.74242 15.3517 3.13642C15.7457 3.53042 15.967 4.06479 15.967 4.62199C15.967 5.1792 15.7457 5.71357 15.3517 6.10757C14.9577 6.50157 14.4233 6.72292 13.8661 6.72292" stroke="#FF6900" stroke-width="1.68074" stroke-linecap="round" stroke-linejoin="round"/>
</g>
</svg>
