<svg preserveAspectRatio="none" width="100%" height="100%" overflow="visible" style="display: block;" viewBox="0 0 19.9871 19.9871" fill="none" xmlns="http://www.w3.org/2000/svg">
<g id="Icon" clip-path="url(#clip0_41_238)">
<path id="Vector" d="M8.05395 3.44444C8.09984 2.9617 8.32406 2.51341 8.6828 2.18715C9.04154 1.86089 9.50903 1.6801 9.99395 1.6801C10.4789 1.6801 10.9464 1.86089 11.3051 2.18715C11.6638 2.51341 11.8881 2.9617 11.9339 3.44444C11.9615 3.75628 12.0638 4.05689 12.2322 4.32082C12.4006 4.58475 12.63 4.80423 12.9012 4.96069C13.1724 5.11714 13.4772 5.20596 13.79 5.21964C14.1028 5.23331 14.4142 5.17143 14.698 5.03924C15.1386 4.83918 15.6379 4.81023 16.0987 4.95803C16.5596 5.10582 16.9489 5.41978 17.191 5.83881C17.4331 6.25783 17.5106 6.75194 17.4084 7.22497C17.3063 7.69799 17.0318 8.11609 16.6384 8.3979C16.3822 8.57765 16.1731 8.81647 16.0287 9.09413C15.8843 9.3718 15.809 9.68016 15.809 9.99312C15.809 10.3061 15.8843 10.6144 16.0287 10.8921C16.1731 11.1698 16.3822 11.4086 16.6384 11.5883C17.0318 11.8701 17.3063 12.2882 17.4084 12.7613C17.5106 13.2343 17.4331 13.7284 17.191 14.1474C16.9489 14.5664 16.5596 14.8804 16.0987 15.0282C15.6379 15.176 15.1386 15.147 14.698 14.947C14.4142 14.8148 14.1028 14.7529 13.79 14.7666C13.4772 14.7803 13.1724 14.8691 12.9012 15.0255C12.63 15.182 12.4006 15.4015 12.2322 15.6654C12.0638 15.9293 11.9615 16.23 11.9339 16.5418C11.8881 17.0245 11.6638 17.4728 11.3051 17.7991C10.9464 18.1253 10.4789 18.3061 9.99395 18.3061C9.50903 18.3061 9.04154 18.1253 8.6828 17.7991C8.32406 17.4728 8.09984 17.0245 8.05395 16.5418C8.02642 16.2298 7.92412 15.9291 7.7557 15.6651C7.58728 15.4011 7.35771 15.1815 7.08644 15.025C6.81517 14.8686 6.51018 14.7798 6.1973 14.7662C5.88443 14.7526 5.57289 14.8146 5.28908 14.947C4.84844 15.147 4.34912 15.176 3.88832 15.0282C3.42751 14.8804 3.03818 14.5664 2.79609 14.1474C2.55401 13.7284 2.47649 13.2343 2.57863 12.7613C2.68077 12.2882 2.95525 11.8701 3.34867 11.5883C3.60485 11.4086 3.81397 11.1698 3.95834 10.8921C4.10272 10.6144 4.17809 10.3061 4.17809 9.99312C4.17809 9.68016 4.10272 9.3718 3.95834 9.09413C3.81397 8.81647 3.60485 8.57765 3.34867 8.3979C2.95581 8.11595 2.68181 7.69801 2.57991 7.22531C2.47802 6.7526 2.55552 6.2589 2.79734 5.84015C3.03917 5.42139 3.42804 5.10751 3.88839 4.95949C4.34874 4.81147 4.84768 4.8399 5.28824 5.03924C5.57202 5.17143 5.88348 5.23331 6.19624 5.21964C6.509 5.20596 6.81387 5.11714 7.08503 4.96069C7.35619 4.80423 7.58567 4.58475 7.75404 4.32082C7.9224 4.05689 8.02471 3.75628 8.05229 3.44444" stroke="white" stroke-width="1.66559" stroke-linecap="round" stroke-linejoin="round"/>
<path id="Vector_2" d="M9.99353 12.4919C11.3734 12.4919 12.4919 11.3734 12.4919 9.99353C12.4919 8.61371 11.3734 7.49515 9.99353 7.49515C8.61371 7.49515 7.49515 8.61371 7.49515 9.99353C7.49515 11.3734 8.61371 12.4919 9.99353 12.4919Z" stroke="white" stroke-width="1.66559" stroke-linecap="round" stroke-linejoin="round"/>
</g>
<defs>
<clipPath id="clip0_41_238">
<rect width="19.9871" height="19.9871" fill="white"/>
</clipPath>
</defs>
</svg>
