<svg preserveAspectRatio="none" width="100%" height="100%" overflow="visible" style="display: block;" viewBox="0 0 11.9999 11.9999" fill="none" xmlns="http://www.w3.org/2000/svg">
<g id="Icon" clip-path="url(#clip0_41_281)">
<path id="Vector" d="M1.99999 6.99997C1.90537 7.0003 1.8126 6.97376 1.73246 6.92346C1.65233 6.87316 1.58811 6.80115 1.54726 6.7158C1.50642 6.63045 1.49064 6.53527 1.50174 6.44131C1.51284 6.34734 1.55038 6.25846 1.60999 6.18498L6.55996 1.08501C6.59709 1.04215 6.64768 1.01319 6.70345 1.00288C6.75921 0.992568 6.81682 1.00152 6.86682 1.02827C6.91682 1.05501 6.95625 1.09796 6.97862 1.15007C7.001 1.20217 7.00499 1.26034 6.98995 1.31501L6.02996 4.32499C6.00165 4.40075 5.99214 4.48225 6.00225 4.56249C6.01236 4.64274 6.04179 4.71933 6.088 4.7857C6.13422 4.85207 6.19584 4.90624 6.2676 4.94357C6.33935 4.98089 6.41908 5.00025 6.49996 4.99999H9.99993C10.0945 4.99966 10.1873 5.02619 10.2675 5.0765C10.3476 5.1268 10.4118 5.19881 10.4527 5.28416C10.4935 5.3695 10.5093 5.46469 10.4982 5.55865C10.4871 5.65262 10.4495 5.7415 10.3899 5.81498L5.43996 10.9149C5.40283 10.9578 5.35223 10.9868 5.29647 10.9971C5.24071 11.0074 5.1831 10.9984 5.1331 10.9717C5.0831 10.9449 5.04367 10.902 5.0213 10.8499C4.99892 10.7978 4.99493 10.7396 5.00997 10.6849L5.96996 7.67497C5.99827 7.59921 6.00777 7.51771 5.99766 7.43747C5.98755 7.35722 5.95813 7.28063 5.91191 7.21426C5.8657 7.14789 5.80407 7.09372 5.73232 7.05639C5.66057 7.01907 5.58084 6.99971 5.49996 6.99997H1.99999Z" fill="var(--fill-0, #D08700)" stroke="var(--stroke-0, #D08700)" stroke-width="0.999993" stroke-linecap="round" stroke-linejoin="round"/>
</g>
<defs>
<clipPath id="clip0_41_281">
<rect width="11.9999" height="11.9999" fill="white"/>
</clipPath>
</defs>
</svg>
