<svg preserveAspectRatio="none" width="100%" height="100%" overflow="visible" style="display: block;" viewBox="0 0 15.9935 15.9935" fill="none" xmlns="http://www.w3.org/2000/svg">
<g id="Icon" clip-path="url(#clip0_41_215)">
<path id="Vector" d="M7.99675 1.99919H3.33198C2.9785 1.99919 2.6395 2.13961 2.38955 2.38955C2.13961 2.6395 1.99919 2.9785 1.99919 3.33198V12.6615C1.99919 13.015 2.13961 13.354 2.38955 13.6039C2.6395 13.8539 2.9785 13.9943 3.33198 13.9943H12.6615C13.015 13.9943 13.354 13.8539 13.6039 13.6039C13.8539 13.354 13.9943 13.015 13.9943 12.6615V7.99675" stroke="white" stroke-width="1.33279" stroke-linecap="round" stroke-linejoin="round"/>
<path id="Vector_2" d="M12.245 1.74929C12.5101 1.48418 12.8697 1.33524 13.2446 1.33524C13.6195 1.33524 13.9791 1.48418 14.2442 1.74929C14.5093 2.0144 14.6583 2.37396 14.6583 2.74888C14.6583 3.1238 14.5093 3.48336 14.2442 3.74847L8.23798 9.75536C8.07975 9.91346 7.88426 10.0292 7.66955 10.0919L5.75499 10.6517C5.69765 10.6684 5.63687 10.6694 5.579 10.6546C5.52114 10.6397 5.46833 10.6096 5.42609 10.5674C5.38385 10.5252 5.35375 10.4724 5.33892 10.4145C5.3241 10.3566 5.3251 10.2958 5.34183 10.2385L5.9016 8.32394C5.96459 8.1094 6.08055 7.91415 6.2388 7.75618L12.245 1.74929Z" stroke="white" stroke-width="1.33279" stroke-linecap="round" stroke-linejoin="round"/>
</g>
<defs>
<clipPath id="clip0_41_215">
<rect width="15.9935" height="15.9935" fill="white"/>
</clipPath>
</defs>
</svg>
