<svg preserveAspectRatio="none" width="100%" height="100%" overflow="visible" style="display: block;" viewBox="0 0 19.9871 19.9871" fill="none" xmlns="http://www.w3.org/2000/svg">
<g id="Icon" clip-path="url(#clip0_41_278)">
<path id="Vector" d="M1.66559 7.91158C1.66561 6.98485 1.94673 6.07992 2.47184 5.31631C2.99695 4.55271 3.74134 3.96635 4.60669 3.63468C5.47204 3.30301 6.41764 3.24164 7.31861 3.45867C8.21957 3.67569 9.03351 4.16091 9.65292 4.85023C9.69655 4.89688 9.74929 4.93407 9.80788 4.95949C9.86647 4.98492 9.92966 4.99804 9.99353 4.99804C10.0574 4.99804 10.1206 4.98492 10.1792 4.95949C10.2378 4.93407 10.2905 4.89688 10.3341 4.85023C10.9516 4.15643 11.7657 3.66713 12.6682 3.44747C13.5706 3.22781 14.5185 3.28819 15.3858 3.62059C16.253 3.95299 16.9985 4.54164 17.5229 5.30818C18.0474 6.07473 18.3259 6.98281 18.3215 7.91158C18.3215 9.81868 17.0723 11.2428 15.8231 12.4919L11.2494 16.9166C11.0942 17.0948 10.9029 17.238 10.6881 17.3366C10.4734 17.4352 10.2401 17.4869 10.0038 17.4884C9.76746 17.4899 9.53354 17.4411 9.31754 17.3452C9.10155 17.2494 8.90842 17.1087 8.751 16.9324L4.16397 12.4919C2.91478 11.2428 1.66559 9.82701 1.66559 7.91158Z" stroke="#F6339A" stroke-width="1.66559" stroke-linecap="round" stroke-linejoin="round"/>
</g>
<defs>
<clipPath id="clip0_41_278">
<rect width="19.9871" height="19.9871" fill="white"/>
</clipPath>
</defs>
</svg>
