<svg preserveAspectRatio="none" width="100%" height="100%" overflow="visible" style="display: block;" viewBox="0 0 19.9871 19.9871" fill="none" xmlns="http://www.w3.org/2000/svg">
<g id="Icon" clip-path="url(#clip0_41_227)">
<g id="Vector">
<path d="M6.00445 12.4919L2.21523 5.94615C2.05184 5.66373 1.975 5.33953 1.99424 5.01382C2.01349 4.68811 2.12798 4.37522 2.3235 4.114L3.6643 2.33182C3.81944 2.12496 4.02062 1.95707 4.25189 1.84143C4.48317 1.72579 4.73819 1.66559 4.99677 1.66559H14.9903C15.2489 1.66559 15.5039 1.72579 15.7352 1.84143C15.9664 1.95707 16.1676 2.12496 16.3228 2.33182L17.6552 4.114C17.8521 4.37438 17.968 4.68684 17.9887 5.01256C18.0095 5.33829 17.934 5.66293 17.7718 5.94615L13.9826 12.4919" fill="#FFDF20"/>
<path d="M6.00445 12.4919L2.21523 5.94615C2.05184 5.66373 1.975 5.33953 1.99424 5.01382C2.01349 4.68811 2.12798 4.37522 2.3235 4.114L3.6643 2.33182C3.81944 2.12496 4.02062 1.95707 4.25189 1.84143C4.48317 1.72579 4.73819 1.66559 4.99677 1.66559H14.9903C15.2489 1.66559 15.5039 1.72579 15.7352 1.84143C15.9664 1.95707 16.1676 2.12496 16.3228 2.33182L17.6552 4.114C17.8521 4.37438 17.968 4.68684 17.9887 5.01256C18.0095 5.33829 17.934 5.66293 17.7718 5.94615L13.9826 12.4919" stroke="#FFDF20" stroke-width="1.66559" stroke-linecap="round" stroke-linejoin="round"/>
</g>
<g id="Vector_2">
<path d="M9.16073 9.99353L4.2639 1.83215Z" fill="#FFDF20"/>
<path d="M9.16073 9.99353L4.2639 1.83215" stroke="#FFDF20" stroke-width="1.66559" stroke-linecap="round" stroke-linejoin="round"/>
</g>
<g id="Vector_3">
<path d="M10.8263 9.99353L15.7232 1.83215Z" fill="#FFDF20"/>
<path d="M10.8263 9.99353L15.7232 1.83215" stroke="#FFDF20" stroke-width="1.66559" stroke-linecap="round" stroke-linejoin="round"/>
</g>
<g id="Vector_4">
<path d="M6.66235 5.82956H13.3247Z" fill="#FFDF20"/>
<path d="M6.66235 5.82956H13.3247" stroke="#FFDF20" stroke-width="1.66559" stroke-linecap="round" stroke-linejoin="round"/>
</g>
<path id="Vector_5" d="M9.99353 18.3215C12.2932 18.3215 14.1575 16.4572 14.1575 14.1575C14.1575 11.8578 12.2932 9.99353 9.99353 9.99353C7.69383 9.99353 5.82956 11.8578 5.82956 14.1575C5.82956 16.4572 7.69383 18.3215 9.99353 18.3215Z" fill="#FFDF20" stroke="#FFDF20" stroke-width="1.66559" stroke-linecap="round" stroke-linejoin="round"/>
<g id="Vector_6">
<path d="M9.99353 14.9903V13.3247H9.57714" fill="#FFDF20"/>
<path d="M9.99353 14.9903V13.3247H9.57714" stroke="#FFDF20" stroke-width="1.66559" stroke-linecap="round" stroke-linejoin="round"/>
</g>
</g>
<defs>
<clipPath id="clip0_41_227">
<rect width="19.9871" height="19.9871" fill="white"/>
</clipPath>
</defs>
</svg>
