<svg preserveAspectRatio="none" width="100%" height="100%" overflow="visible" style="display: block;" viewBox="0 0 11.9999 11.9999" fill="none" xmlns="http://www.w3.org/2000/svg">
<g id="Icon" clip-path="url(#clip0_41_272)">
<path id="Vector" d="M1.99999 6.99994C1.90537 7.00027 1.8126 6.97373 1.73246 6.92343C1.65233 6.87313 1.58811 6.80112 1.54726 6.71577C1.50642 6.63042 1.49064 6.53524 1.50174 6.44128C1.51284 6.34731 1.55038 6.25843 1.60999 6.18495L6.55996 1.08498C6.59709 1.04212 6.64768 1.01316 6.70345 1.00285C6.75921 0.992538 6.81682 1.00149 6.86682 1.02823C6.91682 1.05498 6.95625 1.09793 6.97862 1.15004C7.001 1.20214 7.00499 1.26031 6.98995 1.31498L6.02996 4.32496C6.00165 4.40072 5.99214 4.48222 6.00225 4.56246C6.01236 4.64271 6.04179 4.7193 6.088 4.78567C6.13422 4.85204 6.19584 4.90621 6.2676 4.94354C6.33935 4.98086 6.41908 5.00022 6.49996 4.99996H9.99993C10.0945 4.99963 10.1873 5.02616 10.2675 5.07647C10.3476 5.12677 10.4118 5.19878 10.4527 5.28413C10.4935 5.36947 10.5093 5.46466 10.4982 5.55862C10.4871 5.65259 10.4495 5.74147 10.3899 5.81495L5.43996 10.9149C5.40283 10.9578 5.35223 10.9867 5.29647 10.997C5.24071 11.0074 5.1831 10.9984 5.1331 10.9717C5.0831 10.9449 5.04367 10.902 5.0213 10.8499C4.99892 10.7978 4.99493 10.7396 5.00997 10.6849L5.96996 7.67494C5.99827 7.59918 6.00777 7.51768 5.99766 7.43744C5.98755 7.35719 5.95813 7.2806 5.91191 7.21423C5.8657 7.14786 5.80407 7.09368 5.73232 7.05636C5.66057 7.01904 5.58084 6.99968 5.49996 6.99994H1.99999Z" fill="#D08700" stroke="#D08700" stroke-width="0.999993" stroke-linecap="round" stroke-linejoin="round"/>
</g>
<defs>
<clipPath id="clip0_41_272">
<rect width="11.9999" height="11.9999" fill="white"/>
</clipPath>
</defs>
</svg>
